PathFileType	4	(X/Y/Z)	D:\walkingproject\041602jb\041602jb1.trc																																																																																		
DataRate	CameraRate	NumFrames	NumMarkers	Units	OrigDataRate	OrigDataStartFrame	OrigNumFrames																																																																														
120	120	8	28	mm	120	121	240																																																																														
Frame#	Time	head vertex			right ear			left ear			r scapula			right shoulder			left shoulder			sacrum			right elbow			right wrist			left elbow			left wrist			right g. trochanter			rigth mid-thigh			right knee			right tibia			right ankle			right heel			right mth			left g. trochanter			left mid-thigh			left knee			left tibia			left ankle			left heel			left mth			slider			fixed 1			fixed 2		
		X1	Y1	Z1	X2	Y2	Z2	X3	Y3	Z3	X4	Y4	Z4	X5	Y5	Z5	X6	Y6	Z6	X7	Y7	Z7	X8	Y8	Z8	X9	Y9	Z9	X10	Y10	Z10	X11	Y11	Z11	X12	Y12	Z12	X13	Y13	Z13	X14	Y14	Z14	X15	Y15	Z15	X16	Y16	Z16	X17	Y17	Z17	X18	Y18	Z18	X19	Y19	Z19	X20	Y20	Z20	X21	Y21	Z21	X22	Y22	Z22	X23	Y23	Z23	X24	Y24	Z24	X25	Y25	Z25	X26	Y26	Z26	X27	Y27	Z27	X28	Y28	Z28
																																																																																					
121	1	347.83359	250.08914	1727.49719	400.18381	152.71545	1623.48401	399.23795	365.35428	1634.34131	236.63293	180.64833	1331.27136	382.02081	18.40027	1345.22229	380.32483	499.39047	1364.93738	288.38379	257.87256	984.56274	385.00391	-27.93872	1110.42468	617.86572	24.00637	1156.7937	414.27188	544.96014	1101.11011	619.24121	458.14178	1158.00488	427.74551	57.63385	879.78015				358.37079	80.88235	479.16693	389.74646	134.73021	228.75128	343.81305	123.35787	95.28453	255.02554	165.02025	38.16899	452.17593	84.10741	13.37262	448.13498	456.61002	866.03827				380.20087	418.11926	480.98648	409.96365	390.65836	336.5134	336.18735	371.80756	92.32047	259.88281	324.29709	36.56703	448.23346	415.12891	2.60063	965.67474	-21.40953	9.74698	1955.65491	-11.8066	-14.00936	-4.2835	0.95118	8.9866
122	1.008	347.83359	250.08914	1727.49719	400.18381	152.71545	1623.48401	398.69678	365.3884	1634.52087	236.63293	180.64833	1331.27136	382.02081	18.40027	1345.22229	380.32483	499.39047	1364.93738	288.38379	257.87256	984.56274	385.00391	-27.93872	1110.42468	617.86572	24.00637	1156.7937	414.27188	544.96014	1101.11011	619.24121	458.14178	1158.00488	427.74551	57.63385	879.78015				359.11893	80.63588	479.28055	389.80856	135.48361	228.73669	343.81305	123.35787	95.28453	254.4567	165.0352	38.03055	452.17593	84.10741	13.37262	448.13498	456.61002	866.03827				380.20087	418.11926	480.98648	409.6929	390.83218	336.24643	336.18735	371.80756	92.32047	260.23984	324.35254	36.48975	447.66922	415.13538	2.67758	965.91101	-21.14479	9.93127	1955.65491	-11.8066	-14.00936	-4.60406	1.00681	9.24365
123	1.017	347.83359	250.08914	1727.49719	400.18381	152.71545	1623.48401	399.56015	365.33548	1634.55505	236.63293	180.64833	1331.27136	382.02081	18.40027	1345.22229	380.32483	499.39047	1364.93738	288.38379	257.87256	984.56274	385.00391	-27.93872	1110.42468	617.86572	24.00637	1156.7937	414.0271	544.90216	1101.35229	619.24121	458.14178	1158.00488	427.74551	57.63385	879.78015				359.11893	80.63588	479.28055	389.80856	135.48361	228.73669	343.81305	123.35787	95.28453	254.44104	165.35875	37.98455	452.17593	84.10741	13.37262	448.13498	456.61002	866.03827				380.00266	418.92987	481.51904	409.6929	390.83218	336.24643	336.18735	371.80756	92.32047	260.23984	324.35254	36.48975	447.66922	415.13538	2.67758	965.67474	-21.40953	9.74698	1955.65491	-11.8066	-14.00936	-4.2835	0.95118	8.9866
124	1.025	348.01294	250.36305	1727.54504	400.18381	152.71545	1623.48401	400.12137	365.30029	1634.40381	236.63293	180.64833	1331.27136	382.02081	18.40027	1345.22229	380.32483	499.39047	1364.93738	288.38379	257.87256	984.56274	385.00391	-27.93872	1110.42468	617.86572	24.00637	1156.7937	414.27188	544.96014	1101.11011	619.24121	458.14178	1158.00488	427.74551	57.63385	879.78015				358.37079	80.88235	479.16693	389.74646	134.73021	228.75128	343.81305	123.35787	95.28453	254.19144	165.13704	38.38284	452.17593	84.10741	13.37262	448.13498	456.61002	866.03827				380.00266	418.92987	481.51904	410.1116	390.47299	336.37994	336.18735	371.80756	92.32047	260.23984	324.35254	36.48975	447.66922	415.13538	2.67758	965.48572	-21.12002	9.70537	1955.65491	-11.8066	-14.00936	-4.2835	0.95118	8.9866
125	1.033	347.83359	250.08914	1727.49719	400.18381	152.71545	1623.48401	399.56015	365.33548	1634.55505	236.63293	180.64833	1331.27136	382.02081	18.40027	1345.22229	380.32483	499.39047	1364.93738	288.38379	257.87256	984.56274	385.00391	-27.93872	1110.42468	617.86572	24.00637	1156.7937	414.27188	544.96014	1101.11011	619.24121	458.14178	1158.00488	427.74551	57.63385	879.78015				359.11893	80.63588	479.28055	389.74646	134.73021	228.75128	343.81305	123.35787	95.28453	254.59322	165.2339	38.26465	452.38889	83.77427	13.14709	448.13498	456.61002	866.03827				380.00266	418.92987	481.51904	410.1116	390.47299	336.37994	336.18735	371.80756	92.32047	260.23984	324.35254	36.48975	448.23346	415.12891	2.60063	965.91101	-21.14479	9.93127	1955.65491	-11.8066	-14.00936	-4.60406	1.00681	9.24365
126	1.042	348.01294	250.36305	1727.54504	400.18381	152.71545	1623.48401	400.12137	365.30029	1634.40381	236.63293	180.64833	1331.27136	382.02081	18.40027	1345.22229	380.55835	499.63803	1365.25793	288.38379	257.87256	984.56274	385.00391	-27.93872	1110.42468	617.86572	24.00637	1156.7937	414.27188	544.96014	1101.11011	619.24121	458.14178	1158.00488	427.74551	57.63385	879.78015				358.37079	80.88235	479.16693	389.74646	134.73021	228.75128	343.81305	123.35787	95.28453	254.87334	165.1451	37.88887	452.17593	84.10741	13.37262	448.13498	456.61002	866.03827				380.00266	418.92987	481.51904	410.1116	390.47299	336.37994	336.18735	371.80756	92.32047	260.23984	324.35254	36.48975	447.66922	415.13538	2.67758	965.91101	-21.14479	9.93127	1955.65491	-11.8066	-14.00936	-4.59167	1.15969	8.91397
127	1.05	348.33987	250.20404	1727.55176	400.22177	152.89851	1623.56421	400.5383	365.08456	1634.25732	236.63293	180.64833	1331.27136	382.02081	18.40027	1345.22229	380.53656	499.39612	1365.21729	288.38379	257.87256	984.56274	385.00391	-27.93872	1110.42468	617.86572	24.00637	1156.7937	414.27188	544.96014	1101.11011	619.24121	458.14178	1158.00488	427.74551	57.63385	879.78015				358.37079	80.88235	479.16693	389.74646	134.73021	228.75128	343.81305	123.35787	95.28453	254.87334	165.1451	37.88887	452.17593	84.10741	13.37262	448.13498	456.61002	866.03827				380.00266	418.92987	481.51904	410.1116	390.47299	336.37994	336.18735	371.80756	92.32047	260.23984	324.35254	36.48975	447.66922	415.13538	2.67758	965.91101	-21.14479	9.93127	1955.65491	-11.8066	-14.00936	-4.2835	0.95118	8.9866
128	1.058	348.33987	250.20404	1727.55176	400.18381	152.71545	1623.48401	400.12137	365.30029	1634.40381	236.63293	180.64833	1331.27136	382.02081	18.40027	1345.22229	380.55835	499.63803	1365.25793	288.38379	257.87256	984.56274	385.68481	-27.59672	1110.52795	617.0918	24.40419	1156.74878	414.27188	544.96014	1101.11011	619.24121	458.14178	1158.00488	427.74551	57.63385	879.78015				359.11893	80.63588	479.28055	389.74646	134.73021	228.75128	343.81305	123.35787	95.28453	255.02554	165.02025	38.16899	452.17593	84.10741	13.37262	448.43469	456.8486	866.39996				380.00266	418.92987	481.51904	409.6929	390.83218	336.24643	336.18735	371.80756	92.32047	260.23984	324.35254	36.48975	447.66922	415.13538	2.67758	965.91101	-21.14479	9.93127	1955.65491	-11.8066	-14.00936	-4.2835	0.95118	8.9866
